# xmcd
#
# Track frame offsets: 
#        150
#        42027
#        62629
#        78530
#        93041
#        107955
#        129468
#        143330
#        173186
#        187323
#        215915
#        242889
#        274834
#        311489
#        328071
#
# Disc length: 4729 seconds
#
# Revision: 0
# Processed by: cddbd v1.5.1PL2 Copyright (c) Steve Scherf et al.
# Submitted via: ExactAudioCopy v0.95b3
#
DISCID=dc12770f
DTITLE=Lyle Lovett - Friend of the Devil - Disc 2
DYEAR=1900
DGENRE=Country
TTITLE0=Her First Mistake
TTITLE1=Private Conversation
TTITLE2=If I Had a Boat
TTITLE3=Give Me Back My Heart
TTITLE4=LA County
TTITLE5=Nobody Knows Me
TTITLE6=More Pretty Girls Than One
TTITLE7=Same Old River
TTITLE8=Good Intentions
TTITLE9=Tou Can't Resist It
TTITLE10=Closing Time
TTITLE11=Church
TTITLE12=The Road to Ensenada
TTITLE13=San Antonio Girl
TTITLE14=White Freightliner
EXTD=
EXTT0=
EXTT1=
EXTT2=
EXTT3=
EXTT4=
EXTT5=
EXTT6=
EXTT7=
EXTT8=
EXTT9=
EXTT10=
EXTT11=
EXTT12=
EXTT13=
EXTT14=
PLAYORDER=
